<svg width="39" height="43" viewBox="0 0 39 43" fill="none" xmlns="http://www.w3.org/2000/svg">
<path d="M8.66667 19.35H13V23.65H8.66667V19.35ZM39 8.6V38.7C39 41.065 37.05 43 34.6667 43H4.33333C1.92833 43 0 41.065 0 38.7L0.0216666 8.6C0.0216666 6.235 1.92833 4.3 4.33333 4.3H6.5V0H10.8333V4.3H28.1667V0H32.5V4.3H34.6667C37.05 4.3 39 6.235 39 8.6ZM4.33333 12.9H34.6667V8.6H4.33333V12.9ZM34.6667 38.7V17.2H4.33333V38.7H34.6667ZM26 23.65H30.3333V19.35H26V23.65ZM17.3333 23.65H21.6667V19.35H17.3333V23.65Z" fill="white"/>
</svg>
