<?xml version="1.0" standalone="no"?>
<!DOCTYPE svg PUBLIC "-//W3C//DTD SVG 20010904//EN"
 "http://www.w3.org/TR/2001/REC-SVG-20010904/DTD/svg10.dtd">
<svg version="1.0" xmlns="http://www.w3.org/2000/svg"
 width="275.000000pt" height="275.000000pt" viewBox="0 0 275.000000 275.000000"
 preserveAspectRatio="xMidYMid meet">

<g transform="translate(0.000000,275.000000) scale(0.100000,-0.100000)"
fill="#000000" stroke="none">
<path d="M1210 2608 c-229 -91 -455 -222 -645 -375 -113 -91 -302 -279 -400
-397 l-65 -80 0 -67 c0 -107 19 -313 41 -444 54 -323 169 -635 337 -912 l55
-91 106 -31 c143 -42 309 -76 465 -96 181 -24 534 -17 692 14 130 24 334 82
365 103 33 22 152 217 234 383 163 333 238 625 252 981 l6 18 -147 -776 -383
-1145 l-50 -77 -96 -30 c-232 -72 -410 -95 -672 -87 -232 7 -406 35 -653 108
-66 19 -70 23 -109 82 -60 93 -182 348 -222 467 -83 246 -136 555 -136 801 l0
66 79 94 c241 290 526 510 841 649 120 53 189 78 218 79 13 60 -90 105 c-261
303 -581 538 -945 695 -124 54 -243 94 -275 94 -15 0 -75 -19 -133 -42z m258
-94 c382 -141 735 -391 1001 -707 l74 -88 -12 -177 c-27 -411 67 -15 120 -35z"/>
<path d="M1260 2293 c-77 -11 -90 -15 -90 -23 0 -6 14 -10 30 -10 27 0 30 -3
30 -32 0 -49 11 -78 27 -78 13 0 14 10 9 59 -6 56 -6 60 15 63 12 2 24 9 27
16 4 12 -1 13 -48 5z"/>
<path d="M1352 2235 c-18 -36 -32 -70 -32 -75 0 -17 25 -11 38 10 7 11 23 20
37 20 14 0 33 -9 42 -20 17 -19 43 -27 43 -13 0 3 -14 37 -31 75 -21 43 -38
68 -48 68 -11 0 -29 -25 -49 -65z m62 -1 c9 -23 8 -24 -14 -24 -11 0 -20 2
-20 4 0 12 13 36 20 36 4 0 11 -7 14 -16z"/>
<path d="M1112 2261 c-11 -6 -10 -20 3 -72 19 -74 18 -71 38 -64 13 6 13 14
-4 72 -21 76 -20 74 -37 64z"/>
<path d="M1537 2263 c-19 -19 -5 -51 33 -72 47 -26 51 -41 10 -41 -19 0 -33 7
-40 20 -14 27 -32 25 -28 -2 4 -31 69 -56 103 -40 41 19 33 57 -15 82 -22 11
-40 25 -40 30 0 15 36 12 50 -5 13 -16 40 -20 40 -7 0 30 -91 58 -113 35z"/>
<path d="M967 2214 c-22 -12 -28 -21 -25 -42 3 -26 6 -27 57 -27 33 0 56 -5
58 -12 6 -16 -28 -33 -60 -30 -14 1 -27 -2 -29 -8 -6 -21 67 -17 95 5 54 42
24 83 -52 73 -35 -5 -43 -3 -39 8 3 8 21 15 42 17 23 2 36 8 33 15 -6 18 -48
19 -80 1z"/>
<path d="M1757 2135 c-29 -53 -32 -65 -20 -70 10 -3 22 3 30 15 22 31 40 24
48 -17 7 -40 21 -63 37 -63 5 0 7 8 5 18 -3 9 -8 33 -11 54 -7 36 -6 36 36 43
39 7 41 8 23 21 -11 8 -26 12 -35 9 -8 -4 -28 -9 -44 -12 -31 -6 -30 -8 -10
41 3 7 -1 16 -9 19 -10 4 -26 -15 -50 -58z"/>
<path d="M815 2124 c-22 -15 -44 -30 -49 -35 -4 -4 7 -29 25 -55 19 -26 37
-53 41 -58 5 -8 11 -7 19 1 8 8 8 16 -1 33 -17 33 -1 44 46 31 31 -8 42 -8 53
3 12 13 9 16 -22 21 -33 6 -36 10 -31 31 6 25 -10 54 -30 54 -6 0 -29 -12 -51
-26z m38 -46 c-13 -12 -28 -18 -37 -15 -24 9 -19 25 12 41 37 20 53 3 25 -26z"/>
<path d="M1912 2029 l-42 -51 43 -39 c23 -21 45 -38 50 -39 18 -1 4 28 -23 49
l-31 22 40 48 c22 27 38 51 34 55 -14 14 -32 3 -71 -45z"/>
<path d="M1228 2028 c-4 -33 -22 -72 -65 -141 l-60 -96 -13 27 -13 27 -9 -40
c-5 -22 -7 -51 -5 -64 4 -18 -3 -31 -24 -48 -34 -29 -49 -77 -49 -156 0 -58 0
-58 -22 -43 -12 9 -36 16 -52 16 -28 0 -28 -1 -13 -18 22 -24 41 -125 34 -177
-3 -22 -2 -67 2 -99 15 -108 84 -140 221 -100 89 25 109 27 140 14 25 -10 34
-10 54 3 22 15 29 14 92 -8 113 -40 224 -28 256 27 8 14 15 73 18 153 5 111 8
135 28 166 30 50 8 65 -50 35 l-28 -15 0 61 c0 67 -28 140 -61 161 -15 9 -19
24 -19 69 0 61 -5 69 -25 41 -11 -15 -15 -13 -33 23 -11 21 -41 65 -66 98 -32
40 -46 68 -46 89 l0 30 -25 -23 c-58 -55 -54 -120 22 -285 92 -203 104 -273
58 -352 -14 -23 -32 -43 -40 -43 -19 0 -67 60 -60 77 16 42 16 65 1 88 -9 14
-16 45 -16 75 0 47 2 50 25 50 20 0 25 5 25 25 0 20 -5 25 -25 25 -20 0 -25 5
-25 25 0 20 -5 25 -25 25 -20 0 -25 -5 -25 -24 0 -19 -6 -25 -27 -28 -20 -2
-29 -9 -31 -25 -3 -17 2 -22 25 -25 25 -3 28 -8 31 -41 3 -33 -2 -43 -34 -73
-21 -19 -41 -34 -45 -34 -3 0 9 -16 27 -36 33 -34 33 -36 19 -64 -17 -33 -50
-47 -70 -30 -23 19 -45 76 -45 117 0 52 22 124 82 268 36 84 52 137 56 181 4
59 3 63 -30 99 l-35 38 -5 -45z"/>
<path d="M670 1998 c-19 -22 -36 -44 -38 -47 -1 -4 19 -28 46 -54 l48 -47 43
44 c24 24 41 50 39 57 -3 8 -17 -1 -38 -24 -30 -34 -35 -36 -49 -22 -13 13
-12 18 12 43 15 15 27 31 27 35 0 16 -22 5 -45 -20 -19 -23 -26 -26 -36 -16
-10 11 -7 19 19 46 18 18 29 36 26 40 -12 12 -18 8 -54 -35z"/>
<path d="M2033 1907 c-55 -10 -75 -37 -28 -37 29 0 59 -40 51 -67 -5 -17 9
-53 17 -43 2 3 20 35 40 71 49 90 40 99 -80 76z m61 -42 c-15 -24 -17 -24 -30
-8 -10 15 -10 19 4 25 35 14 43 9 26 -17z"/>
<path d="M583 1894 c-3 -9 7 -34 26 -61 l32 -45 -38 6 c-21 4 -48 10 -60 13
-14 3 -23 1 -23 -6 0 -6 -1 -14 -1 -18 -1 -5 30 -13 67 -20 56 -9 72 -9 83 2
12 12 8 23 -29 79 -23 36 -44 66 -46 66 -3 0 -7 -7 -11 -16z"/>
<path d="M2135 1763 c-27 -14 -52 -27 -53 -29 -2 -1 9 -27 25 -56 31 -59 61
-73 85 -40 7 11 22 21 33 23 11 3 21 14 23 26 4 27 -34 103 -51 103 -6 -1 -34
-13 -62 -27z m83 -37 c11 -25 7 -36 -13 -36 -14 0 -37 45 -28 54 13 13 30 5
41 -18z m-50 -49 c-4 -26 -21 -24 -38 7 -13 24 -13 28 0 36 18 12 42 -15 38
-43z"/>
<path d="M487 1727 c-5 -15 116 -81 127 -70 16 17 1 33 -55 57 -71 30 -65 30
-72 13z"/>
<path d="M450 1635 c0 -8 6 -15 14 -15 8 0 27 -5 43 -11 l28 -11 -55 -22 c-78
-31 -77 -49 4 -70 79 -19 76 -19 76 -1 0 8 -17 19 -42 26 l-43 11 58 21 c76
28 77 50 3 71 -67 20 -86 20 -86 1z"/>
<path d="M2150 1576 c0 -8 9 -17 19 -21 23 -7 38 -62 22 -78 -11 -11 -15 -47
-5 -47 11 0 119 93 118 101 -1 5 -2 13 -2 18 -1 5 -33 17 -71 25 -85 19 -81
19 -81 2z m115 -46 c-3 -5 -15 -15 -26 -20 -16 -9 -19 -7 -19 10 0 15 7 20 26
20 14 0 22 -4 19 -10z"/>
<path d="M412 1444 c2 -15 14 -20 55 -22 54 -3 69 -17 57 -55 -5 -17 -13 -19
-65 -14 -53 5 -59 3 -59 -14 0 -17 8 -19 65 -19 72 0 85 11 85 73 0 44 -12 53
-83 62 -54 7 -59 6 -55 -11z"/>
<path d="M2300 1416 c0 -26 -21 -36 -82 -36 -27 0 -38 -4 -38 -15 0 -12 13
-15 60 -15 57 0 60 -1 60 -25 0 -16 6 -25 16 -25 14 0 15 7 10 38 -3 20 -6 52
-6 70 0 17 -4 32 -10 32 -5 0 -10 -11 -10 -24z"/>
<path d="M460 1214 c0 -24 -6 -34 -27 -44 l-28 -13 30 -6 c23 -5 31 -13 35
-36 l6 -30 13 24 c10 19 18 22 42 17 l29 -6 -17 26 c-13 21 -14 30 -5 45 17
27 15 30 -15 18 -23 -9 -30 -7 -45 13 l-18 23 0 -31z"/>
<path d="M2240 1211 c-13 -19 -19 -21 -43 -12 -31 12 -34 6 -10 -21 14 -16 15
-23 5 -38 -17 -28 -15 -31 14 -24 21 5 31 2 45 -17 l19 -24 0 33 c0 26 6 35
28 44 25 11 26 12 5 15 -25 5 -39 20 -44 47 -4 19 -5 19 -19 -3z"/>
<path d="M910 1032 c0 -52 12 -72 45 -72 12 0 26 5 33 12 14 14 16 108 2 108
-5 0 -10 -20 -10 -45 0 -33 -5 -47 -16 -52 -21 -8 -34 14 -34 60 0 20 -4 37
-10 37 -5 0 -10 -22 -10 -48z"/>
<path d="M1070 1020 c0 -33 4 -60 10 -60 6 0 10 17 10 38 l1 37 22 -37 c33
-56 47 -49 47 22 0 66 -17 83 -22 23 l-3 -38 -22 38 c-12 20 -27 37 -33 37 -6
0 -10 -25 -10 -60z"/>
<path d="M1230 1020 c0 -33 4 -60 10 -60 6 0 10 11 10 25 0 33 13 32 38 -2 28
-39 39 -22 13 20 l-20 33 22 22 c29 30 2 30 -30 0 l-23 -21 0 21 c0 12 -4 22
-10 22 -6 0 -10 -27 -10 -60z"/>
<path d="M1380 1020 l0 -60 40 0 c45 0 55 17 13 22 -26 3 -28 7 -31 51 -4 68
-22 58 -22 -13z"/>
<path d="M1522 1020 c-12 -33 -16 -60 -11 -60 5 0 12 7 15 15 8 20 44 19 60
-2 23 -32 25 -6 4 51 -12 31 -27 56 -35 56 -7 0 -22 -27 -33 -60z m48 -2 c0
-5 -6 -8 -14 -8 -9 0 -12 7 -9 21 4 16 8 17 14 7 5 -7 9 -16 9 -20z"/>
<path d="M1660 1021 l0 -61 40 0 c29 0 42 5 50 20 6 11 7 26 3 33 -4 6 -8 23
-8 37 0 22 -5 25 -42 28 l-43 3 0 -60z m68 27 c-7 -19 -38 -22 -38 -4 0 10 9
16 21 16 12 0 19 -5 17 -12z m2 -53 c0 -8 -9 -15 -20 -15 -11 0 -20 7 -20 15
0 8 9 15 20 15 11 0 20 -7 20 -15z"/>
<path d="M2111 984 c-53 -67 6 -157 84 -128 20 8 45 56 45 89 0 62 -89 89
-129 39z m88 -23 c38 -38 -3 -92 -53 -70 -33 15 -40 37 -21 65 19 29 48 31 74
5z"/>
<path d="M460 969 c0 -6 9 -13 20 -16 24 -7 55 -59 40 -68 -12 -8 -13 -45 -1
-45 17 0 103 110 97 125 -7 18 -156 22 -156 4z m120 -22 c0 -2 -8 -12 -19 -21
-17 -16 -19 -16 -24 4 -4 16 0 20 19 20 13 0 24 -2 24 -3z"/>
<path d="M1030 928 c-74 -16 -92 -17 -140 -6 -30 7 -59 12 -64 13 -8 0 -45
-112 -46 -139 0 -5 105 -6 251 -2 247 8 251 7 266 -13 19 -27 64 -27 89 0 18
20 24 20 262 13 237 -7 244 -6 239 12 -3 10 -8 35 -12 54 -13 71 -14 72 -38
55 -30 -21 -77 -19 -187 10 -129 33 -167 32 -242 -7 l-61 -32 -58 32 c-68 38
-124 40 -259 10z m330 -123 c0 -19 -20 -29 -32 -17 -8 8 -7 16 2 26 14 17 30
12 30 -9z"/>
<path d="M583 854 c-36 -24 -51 -39 -46 -49 5 -14 8 -14 27 -2 11 7 38 23 59
36 36 22 50 52 25 50 -7 0 -36 -16 -65 -35z"/>
<path d="M2034 843 c-54 -58 -52 -64 48 -127 26 -17 27 -17 52 21 38 56 34 93
-15 118 -40 21 -57 19 -85 -12z m74 -19 c25 -17 28 -42 10 -67 -12 -16 -16
-15 -50 8 -43 29 -44 32 -21 57 20 22 32 23 61 2z"/>
<path d="M623 808 c-29 -22 -53 -44 -53 -49 0 -18 23 -20 41 -3 17 16 22 16
29 4 5 -8 7 -23 5 -32 -3 -10 -7 -26 -10 -37 -3 -10 1 -24 9 -30 12 -10 16 -7
21 22 6 30 10 34 36 33 16 -1 29 -3 29 -5 0 -2 -14 -20 -30 -41 -43 -54 -18
-67 27 -14 l34 39 -20 -51 c-25 -66 -12 -85 33 -51 54 41 62 42 34 5 -30 -40
-35 -58 -15 -58 12 1 87 91 87 105 0 4 -8 13 -17 20 -14 11 -23 9 -52 -11 -19
-13 -36 -22 -38 -20 -2 1 3 22 11 44 14 39 14 42 -5 52 -11 6 -24 8 -29 5 -6
-3 -10 4 -10 17 -1 13 -15 40 -33 60 l-32 37 -52 -41z m87 -50 c0 -25 -25 -23
-43 6 -12 17 -13 26 -4 35 14 14 47 -14 47 -41z"/>
<path d="M1931 727 c-16 -20 36 -162 55 -146 7 6 10 17 7 25 -7 19 37 66 55
59 8 -3 21 0 29 7 12 9 4 15 -42 34 -83 34 -91 36 -104 21z m59 -37 c13 -8 13
-11 -2 -27 -10 -9 -18 -12 -18 -6 0 6 -3 18 -6 27 -7 18 4 20 26 6z"/>
<path d="M1163 711 c-28 -24 -29 -35 -3 -28 18 5 20 0 20 -39 0 -32 4 -44 15
-44 12 0 15 14 15 65 0 71 -8 78 -47 46z"/>
<path d="M1262 718 c-31 -31 3 -87 43 -71 15 5 16 3 5 -16 -9 -18 -14 -20 -25
-11 -23 19 -41 7 -21 -13 43 -43 84 0 76 78 -4 42 -50 61 -78 33z m46 -30 c-2
-13 -7 -23 -13 -23 -5 0 -11 10 -13 23 -2 15 2 22 13 22 11 0 15 -7 13 -22z"/>
<path d="M1382 717 c-11 -13 -16 -46 -14 -84 4 -45 74 -55 87 -12 11 34 -4 59
-35 59 -22 0 -28 4 -23 16 4 11 13 13 37 8 27 -6 29 -5 17 10 -16 19 -54 21
-69 3z m48 -77 c0 -27 -17 -34 -29 -12 -7 13 -7 22 1 30 15 15 28 6 28 -18z"/>
<path d="M1490 711 c0 -11 -3 -27 -7 -37 -5 -14 -2 -16 19 -11 34 9 57 -15 38
-38 -9 -11 -16 -13 -24 -5 -13 13 -36 13 -36 0 0 -19 46 -33 69 -21 39 21 23
91 -22 91 -10 0 -15 5 -12 10 3 6 17 10 31 10 13 0 24 5 24 10 0 6 -18 10 -40
10 -33 0 -40 -3 -40 -19z"/>
<path d="M1864 665 c-3 -8 4 -28 16 -45 25 -35 21 -36 -43 -13 -66 24 -74 10
-31 -57 19 -30 38 -56 43 -58 21 -7 18 17 -5 51 -14 20 -22 37 -20 37 3 0 28
-9 56 -20 50 -20 70 -19 70 1 0 10 -70 119 -77 119 -2 0 -6 -7 -9 -15z"/>
<path d="M877 574 c-62 -50 -73 -70 -30 -60 35 9 81 -11 85 -37 2 -11 9 -22
16 -25 9 -3 12 13 12 56 0 33 3 67 6 75 3 9 -2 20 -13 26 -16 8 -30 1 -76 -35z
m53 -24 c0 -22 -1 -23 -24 -14 -13 5 -14 9 -5 20 16 20 29 17 29 -6z"/>
<path d="M1687 573 c-3 -5 -8 -41 -12 -81 -7 -69 -6 -74 11 -70 11 2 20 12 22
24 4 27 55 47 74 28 8 -9 18 -10 28 -4 12 7 4 19 -40 59 -53 48 -74 59 -83 44z
m53 -63 c0 -4 -7 -10 -15 -14 -11 -4 -15 2 -15 21 0 21 2 24 15 13 8 -7 15
-16 15 -20z"/>
<path d="M998 511 c-10 -33 -18 -64 -18 -69 0 -5 21 -15 47 -21 41 -11 49 -10
72 7 38 28 42 94 8 117 -14 9 -40 18 -58 21 -34 6 -34 6 -51 -55z m83 19 c33
-18 17 -90 -21 -90 -45 0 -49 8 -33 56 16 46 22 50 54 34z"/>
<path d="M1591 541 c-7 -5 -16 -30 -18 -56 l-6 -47 -26 44 c-21 34 -31 42 -49
40 -19 -3 -23 -8 -18 -25 3 -12 8 -42 12 -65 4 -24 13 -46 21 -49 21 -8 23 0
12 41 -15 53 -4 56 21 7 33 -65 58 -49 61 39 l1 35 9 -40 c15 -63 18 -70 31
-57 8 8 7 29 -2 76 -12 64 -21 75 -49 57z"/>
<path d="M1166 518 c-8 -27 -26 -107 -26 -117 0 -6 7 -11 15 -11 13 0 24 27
40 108 5 25 3 32 -10 32 -8 0 -17 -6 -19 -12z"/>
<path d="M1207 454 c-6 -77 -2 -84 54 -84 52 0 83 28 83 74 0 48 -22 68 -82
74 l-49 4 -6 -68z m101 -6 c2 -28 -1 -39 -17 -47 -34 -19 -51 -4 -51 46 0 44
0 44 33 41 29 -3 32 -6 35 -40z"/>
<path d="M1370 440 c0 -56 3 -70 15 -70 12 0 15 14 15 70 0 56 -3 70 -15 70
-12 0 -15 -14 -15 -70z"/>
</g>
</svg>
