<?xml version="1.0" standalone="no"?>
<!DOCTYPE svg PUBLIC "-//W3C//DTD SVG 20010904//EN"
 "http://www.w3.org/TR/2001/REC-SVG-20010904/DTD/svg10.dtd">
<svg version="1.0" xmlns="http://www.w3.org/2000/svg"
 width="971.000000pt" height="976.000000pt" viewBox="0 0 971.000000 976.000000"
 preserveAspectRatio="xMidYMid meet">

<g transform="translate(0.000000,976.000000) scale(0.100000,-0.100000)"
fill="#000000" stroke="none">
<path d="M4550 9696 c-507 -183 -987 -397 -1405 -625 -1138 -624 -2108 -1454
-3005 -2571 l-132 -165 5 -385 c6 -380 12 -490 42 -825 74 -803 258 -1655 516
-2387 251 -714 607 -1439 1004 -2048 l81 -126 135 -41 c842 -264 1630 -418
2529 -495 199 -18 1094 -17 1300 0 648 54 1210 160 1787 337 209 63 461 152
482 169 8 6 79 108 157 226 878 1331 1397 2675 1588 4110 53 401 76 747 76
1165 l0 300 -97 120 c-1096 1364 -2452 2370 -4073 3025 -291 117 -754 280
-794 280 -12 -1 -100 -29 -196 -64z m351 -375 c1166 -398 2167 -961 3049
-1715 427 -365 817 -769 1204 -1246 l118 -145 -6 -360 c-3 -198 -12 -443 -21
-545 -128 -1522 -604 -2854 -1521 -4257 -62 -95 -115 -173 -116 -173 -2 0 -66
-23 -143 -50 -1588 -571 -3363 -569 -5273 6 -119 36 -227 70 -241 77 -48 23
-319 473 -513 853 -159 311 -224 455 -344 752 -422 1046 -638 2151 -660 3372
l-6 325 152 190 c811 1009 1686 1762 2692 2318 289 161 674 343 973 463 148
59 486 183 501 183 6 1 76 -21 155 -48z"/>
<path d="M4335 8366 l-250 -31 -3 -39 c-2 -21 0 -42 5 -46 4 -4 48 -3 96 3 48
5 90 7 94 4 3 -4 18 -104 32 -224 l26 -218 60 3 c33 2 63 7 66 10 4 4 -6 106
-21 227 -15 121 -26 222 -24 224 2 2 44 8 94 14 l90 11 0 42 c0 24 -3 45 -7
47 -5 2 -120 -10 -258 -27z"/>
<path d="M4752 8120 c-73 -149 -132 -272 -132 -275 0 -3 31 -5 69 -5 l68 0 27
60 c15 32 31 62 36 65 5 3 66 3 136 -1 l126 -7 25 -57 c22 -52 28 -58 61 -64
20 -3 52 -6 71 -6 28 0 32 3 29 18 -3 11 -59 137 -124 280 l-119 262 -71 0
-71 0 -131 -270z m241 42 c20 -48 37 -91 37 -95 0 -4 -39 -7 -86 -7 -65 0 -85
3 -81 13 25 62 81 177 86 177 4 0 23 -39 44 -88z"/>
<path d="M5546 8299 c-82 -20 -123 -75 -113 -151 8 -58 54 -101 183 -167 120
-62 140 -82 121 -121 -15 -31 -62 -45 -121 -36 -64 10 -108 43 -124 94 -14 44
-15 44 -94 57 -27 4 -38 2 -39 -7 -11 -130 95 -220 287 -244 148 -18 260 80
225 197 -15 51 -61 88 -192 155 -117 60 -140 84 -111 117 20 23 95 22 149 -2
31 -14 44 -28 54 -55 14 -39 19 -41 92 -52 46 -6 47 -6 47 20 0 77 -67 146
-170 176 -84 24 -146 30 -194 19z"/>
<path d="M3849 8263 l-57 -15 24 -86 c13 -48 45 -166 70 -262 26 -96 48 -177
50 -179 7 -8 116 23 120 33 6 16 -131 519 -142 522 -5 1 -34 -5 -65 -13z"/>
<path d="M3410 8121 c-79 -26 -130 -54 -173 -97 -69 -69 -70 -158 -3 -209 49
-37 99 -40 236 -15 144 27 170 22 170 -33 0 -39 -35 -78 -92 -101 -57 -24
-101 -20 -138 11 l-32 27 -54 -28 c-30 -16 -54 -32 -54 -36 0 -12 53 -61 85
-78 100 -52 338 36 395 148 38 74 18 161 -46 201 -42 25 -124 27 -232 4 -40
-8 -90 -15 -111 -15 -73 0 -79 51 -11 96 52 35 113 42 156 19 32 -17 33 -17
89 9 l56 25 -16 25 c-21 32 -92 66 -136 65 -19 0 -59 -8 -89 -18z"/>
<path d="M6311 7775 c-72 -130 -131 -237 -131 -239 0 -10 114 -68 117 -60 2 5
20 38 41 74 37 64 38 65 96 78 33 7 65 11 71 8 8 -3 17 -57 25 -150 7 -80 16
-149 19 -154 3 -5 36 -26 74 -46 81 -46 78 -63 37 194 -16 101 -28 185 -27
186 1 1 73 17 160 36 l158 33 -76 43 -77 43 -171 -40 c-93 -23 -172 -39 -175
-37 -2 3 20 48 49 102 30 53 54 99 54 103 0 6 -95 60 -107 61 -3 0 -65 -106
-137 -235z"/>
<path d="M2814 7792 c-28 -16 -110 -70 -183 -121 l-131 -92 18 -27 c133 -191
287 -409 293 -416 7 -8 91 44 104 64 3 5 -22 48 -56 95 -33 47 -58 92 -56 99
3 8 26 23 51 35 l45 22 98 -27 c192 -52 170 -52 241 -3 l63 44 -98 33 c-54 18
-126 36 -161 39 l-63 6 24 26 c35 37 48 67 49 110 1 120 -120 178 -238 113z
m98 -109 c19 -17 24 -54 9 -81 -10 -19 -163 -132 -177 -132 -5 1 -26 25 -47
55 l-37 54 87 60 c93 63 132 74 165 44z"/>
<path d="M6917 7390 c-92 -110 -169 -205 -172 -212 -3 -11 317 -287 343 -296
5 -1 21 13 35 32 l26 34 -124 103 c-69 57 -124 107 -123 111 2 4 67 83 145
177 l142 169 -49 41 c-27 23 -50 41 -52 41 -2 0 -79 -90 -171 -200z"/>
<path d="M4304 7417 c-1 -164 -36 -242 -262 -587 -64 -96 -137 -218 -165 -270
-27 -52 -50 -96 -52 -98 -1 -1 -19 37 -39 86 -20 50 -49 101 -66 117 l-30 29
0 -47 c0 -25 -7 -95 -16 -154 -15 -102 -15 -223 1 -293 5 -22 0 -28 -40 -49
-97 -51 -184 -179 -219 -321 -25 -103 -39 -262 -34 -406 2 -89 0 -130 -7 -126
-5 3 -30 21 -55 38 -80 57 -168 80 -252 64 -28 -6 -53 -12 -55 -14 -2 -2 10
-19 28 -37 44 -47 95 -159 115 -254 14 -66 18 -144 20 -440 3 -380 10 -463 53
-575 44 -116 135 -199 261 -238 84 -26 284 -23 425 7 107 22 327 91 420 131
68 29 99 25 205 -25 124 -59 149 -59 235 0 95 66 103 66 242 7 479 -205 826
-200 1040 13 51 51 65 73 84 131 21 65 23 90 30 459 4 220 12 412 18 440 31
138 89 260 162 338 27 28 49 52 49 54 0 1 -23 9 -52 18 -104 31 -205 13 -305
-54 -32 -22 -59 -38 -61 -36 -2 2 2 54 8 117 30 302 -48 542 -235 717 l-68 63
-2 132 c-2 130 -12 288 -21 315 -7 21 -69 -42 -107 -108 l-31 -54 -17 52 c-36
105 -118 239 -270 441 -86 114 -168 233 -183 265 -32 67 -43 149 -27 196 6 18
9 35 6 37 -21 21 -170 -119 -209 -196 -45 -89 -59 -164 -53 -277 11 -180 66
-338 262 -760 184 -394 246 -556 279 -734 20 -106 21 -278 1 -356 -26 -101
-90 -220 -159 -292 l-62 -66 -54 29 c-74 40 -137 104 -167 170 l-25 56 32 101
c27 85 32 113 28 167 -6 75 -33 135 -78 173 l-30 26 0 185 0 186 95 0 95 0 0
100 0 100 -95 0 -95 0 0 110 0 110 -105 0 -105 0 0 -110 0 -110 -100 0 -100 0
0 -100 0 -100 100 0 100 0 0 -173 0 -174 -39 -12 c-50 -15 -136 -92 -152 -136
l-13 -34 -80 -3 c-46 -2 -81 -7 -81 -13 0 -5 39 -30 87 -55 55 -28 88 -51 88
-61 0 -9 15 -35 33 -59 80 -107 79 -103 73 -143 -9 -77 -103 -185 -196 -223
-27 -12 -32 -10 -70 21 -137 114 -200 260 -200 462 0 210 62 420 268 903 159
375 196 473 234 620 81 319 27 519 -175 655 -28 19 -54 35 -57 35 -3 0 -5 -46
-6 -103z"/>
<path d="M2157 7246 l-167 -174 197 -191 197 -191 64 62 c35 35 113 116 174
181 l111 118 -32 32 -32 32 -129 -135 -129 -135 -50 50 c-28 27 -51 54 -51 59
0 6 51 61 112 123 l113 113 -33 32 -32 33 -118 -118 -118 -117 -42 43 -42 43
31 30 c17 16 72 73 121 127 l91 98 -28 29 c-16 17 -31 30 -35 30 -3 0 -81 -78
-173 -174z"/>
<path d="M7405 6913 c-154 -31 -282 -57 -284 -59 -2 -2 15 -28 37 -58 l41 -54
66 15 c37 8 68 13 69 11 31 -37 146 -203 146 -211 0 -6 -14 -35 -30 -64 l-31
-54 42 -60 42 -59 135 247 c74 137 139 258 145 270 8 19 4 31 -28 78 -21 30
-45 55 -54 54 -9 0 -142 -26 -296 -56z m194 -160 c-29 -49 -55 -91 -58 -96 -7
-7 -101 114 -101 130 0 8 154 48 197 52 7 1 -10 -38 -38 -86z"/>
<path d="M1843 6870 c-18 -27 -33 -54 -33 -58 0 -5 54 -84 120 -177 66 -93
120 -171 120 -175 0 -4 -89 10 -197 32 -109 21 -205 38 -214 38 -14 0 -96
-107 -87 -115 2 -1 127 -23 278 -49 151 -26 282 -50 291 -52 11 -3 28 14 52
51 21 30 37 59 37 65 0 12 -318 484 -328 487 -4 2 -22 -20 -39 -47z"/>
<path d="M7778 6368 c-131 -61 -238 -115 -238 -121 0 -22 155 -339 183 -372
51 -62 125 -81 191 -50 43 20 66 63 66 120 l0 46 26 -20 c18 -14 41 -21 70
-21 84 0 138 83 115 177 -16 62 -152 353 -165 352 -6 0 -118 -50 -248 -111z
m311 -245 c1 -22 -6 -37 -21 -47 -31 -22 -51 -20 -75 7 -28 30 -108 190 -97
194 5 2 32 14 59 27 l50 24 42 -87 c23 -47 42 -100 42 -118z m-244 31 c54
-119 61 -148 41 -178 -22 -34 -59 -43 -92 -21 -23 15 -114 182 -114 210 0 11
102 64 123 65 4 0 23 -34 42 -76z"/>
<path d="M1473 6224 c-14 -30 -23 -57 -21 -59 2 -2 114 -56 248 -119 l245
-114 29 60 c15 32 27 60 25 62 -10 7 -487 226 -493 226 -4 0 -19 -25 -33 -56z"/>
<path d="M1342 5905 c-7 -25 -12 -51 -12 -59 0 -9 57 -30 170 -62 94 -26 167
-51 163 -54 -5 -4 -99 -40 -211 -80 l-202 -74 -19 -60 c-10 -34 -17 -62 -16
-64 4 -5 527 -153 530 -150 1 2 9 28 17 59 l16 56 -169 49 c-93 26 -166 51
-161 54 4 4 96 40 205 80 l197 73 18 61 c13 42 15 63 8 67 -13 8 -500 149
-513 149 -5 0 -14 -20 -21 -45z"/>
<path d="M7797 5649 c17 -73 19 -79 38 -79 8 0 36 -5 64 -11 l50 -10 26 -112
c14 -62 28 -119 31 -128 3 -11 -14 -30 -51 -58 -62 -47 -61 -44 -31 -143 l11
-38 220 176 c121 97 228 181 238 188 16 12 16 17 1 82 l-15 70 -277 58 c-152
31 -287 60 -298 63 -22 5 -22 4 -7 -58z m373 -140 c36 -6 71 -15 78 -19 9 -4
-13 -27 -69 -68 -46 -34 -86 -59 -90 -55 -4 5 -12 33 -18 63 -7 30 -14 65 -18
78 -5 22 -3 24 23 18 16 -3 58 -11 94 -17z"/>
<path d="M1186 5185 c-3 -11 -6 -41 -6 -66 l0 -45 192 -18 c130 -11 200 -22
216 -32 44 -29 55 -102 25 -175 -25 -64 -47 -69 -233 -53 -85 7 -171 13 -191
14 l-36 0 -7 -62 c-3 -34 -5 -62 -4 -64 2 -1 91 -9 198 -18 200 -16 244 -13
292 18 90 59 124 304 58 413 -35 59 -90 74 -352 96 -144 12 -147 12 -152 -8z"/>
<path d="M8371 5023 l4 -98 -155 -6 c-85 -4 -188 -7 -227 -8 l-73 -1 0 -66 0
-67 230 8 230 7 0 -34 c0 -20 3 -63 6 -97 l7 -61 44 0 45 0 -7 188 c-3 103 -8
220 -11 260 l-6 72 -45 0 -45 0 3 -97z"/>
<path d="M1354 4375 c4 -17 19 -202 18 -222 0 -3 -51 -28 -113 -54 -128 -54
-132 -45 36 -84 l90 -20 7 -45 c4 -25 11 -81 15 -125 l8 -80 63 108 c34 59 64
107 66 107 2 0 52 -11 110 -25 58 -14 111 -25 117 -25 6 0 -13 27 -43 61 -29
33 -65 75 -80 92 l-26 32 59 99 c33 54 58 101 55 104 -3 3 -53 -16 -111 -41
l-106 -46 -37 42 c-82 93 -133 142 -128 122z"/>
<path d="M8202 4340 c-19 -25 -49 -71 -69 -103 -28 -46 -39 -56 -54 -52 -53
17 -196 55 -207 55 -7 0 22 -42 63 -94 l76 -95 -61 -91 c-33 -50 -63 -97 -66
-104 -4 -10 33 1 107 30 61 24 113 44 115 44 1 0 34 -40 73 -90 40 -49 74 -90
77 -90 4 0 5 53 3 117 l-4 118 107 40 c58 22 109 43 112 46 4 3 -42 18 -101
34 -60 15 -112 32 -118 37 -5 5 -12 62 -15 126 l-5 117 -33 -45z"/>
<path d="M3092 3581 c3 -196 6 -206 71 -255 38 -28 148 -29 197 -1 62 36 70
67 70 263 l0 172 -40 0 -40 0 -1 -127 c0 -155 -10 -222 -35 -240 -29 -21 -82
-16 -109 12 -25 24 -25 27 -25 190 l0 165 -46 0 -46 0 4 -179z"/>
<path d="M3690 3535 l0 -225 40 0 40 0 0 147 0 147 84 -144 83 -145 47 -3 46
-3 0 225 0 226 -40 0 -39 0 -3 -147 -3 -148 -85 147 -85 148 -42 0 -43 0 0
-225z"/>
<path d="M4290 3535 l0 -225 40 0 40 0 0 68 c1 63 3 69 37 106 20 22 38 36 40
30 2 -5 27 -52 56 -104 l52 -95 58 -3 58 -3 -82 133 c-45 73 -83 136 -85 139
-2 3 31 43 74 90 l76 84 -54 3 -55 3 -55 -63 c-30 -34 -70 -78 -87 -98 l-32
-35 -1 98 0 97 -40 0 -40 0 0 -225z"/>
<path d="M4880 3535 l0 -225 150 0 150 0 0 40 0 40 -105 0 -105 0 0 185 0 185
-45 0 -45 0 0 -225z"/>
<path d="M5495 3748 c-60 -160 -155 -423 -155 -430 0 -4 19 -8 43 -8 43 0 44
0 58 48 l15 47 88 0 88 0 18 -45 c17 -43 19 -45 64 -48 25 -2 46 -2 46 0 0 2
-37 102 -83 223 l-83 220 -47 3 c-32 2 -49 -1 -52 -10z m76 -165 c12 -38 24
-74 27 -80 3 -10 -11 -13 -53 -13 -42 0 -56 3 -53 13 3 6 15 42 27 80 13 37
24 67 26 67 2 0 13 -30 26 -67z"/>
<path d="M5950 3535 l0 -225 128 0 c147 0 185 13 215 70 27 53 17 107 -28 146
-28 25 -32 33 -20 38 9 3 23 22 31 43 22 51 5 106 -39 133 -27 17 -51 20 -159
20 l-128 0 0 -225z m224 145 c20 -7 26 -17 26 -39 0 -42 -31 -61 -102 -61
l-58 0 0 55 0 55 54 0 c30 0 66 -4 80 -10z m3 -181 c32 -12 43 -26 43 -56 0
-40 -25 -53 -106 -53 l-74 0 0 60 0 60 54 0 c30 0 67 -5 83 -11z"/>
<path d="M7807 3499 c-87 -20 -153 -79 -199 -175 -92 -196 -23 -364 174 -426
73 -22 90 -22 157 -2 75 22 139 84 182 176 30 64 34 83 34 153 0 62 -5 89 -22
120 -43 81 -123 135 -228 154 -32 6 -59 11 -59 10 -1 -1 -18 -5 -39 -10z m137
-150 c27 -13 59 -36 72 -52 97 -115 -5 -304 -153 -283 -57 8 -138 51 -165 89
-57 80 -16 221 77 263 41 19 111 12 169 -17z"/>
<path d="M1340 3393 c0 -1 12 -29 26 -62 l26 -60 70 -3 70 -3 44 -105 c24 -57
44 -111 44 -119 0 -9 -20 -36 -44 -61 l-44 -45 27 -63 28 -63 206 225 206 226
-21 52 c-12 29 -26 58 -32 65 -8 8 -94 13 -309 15 -163 2 -297 2 -297 1z m440
-198 c-41 -41 -77 -75 -81 -75 -4 0 -14 17 -22 38 -9 20 -23 54 -31 75 l-16
37 112 0 112 0 -74 -75z"/>
<path d="M3936 3264 c-44 -8 -165 -34 -270 -59 -255 -59 -292 -65 -426 -72
-144 -7 -270 13 -390 63 -47 19 -91 36 -99 37 -11 2 -35 -75 -94 -296 -44
-163 -78 -299 -76 -301 8 -6 721 13 1054 29 187 8 459 18 605 22 l266 6 25
-49 c49 -95 178 -140 284 -100 49 19 111 81 121 122 l7 27 256 -6 c141 -4 407
-14 591 -22 300 -14 1021 -35 1028 -30 5 4 -111 560 -120 569 -4 6 -27 -10
-53 -37 -66 -66 -134 -90 -255 -89 -111 0 -182 14 -463 89 -290 77 -374 93
-518 100 -160 8 -209 -6 -404 -113 -77 -42 -166 -88 -197 -102 l-58 -24 -77
36 c-43 21 -134 69 -202 108 -161 92 -213 108 -349 107 -59 0 -143 -7 -186
-15z m844 -506 c43 -46 11 -128 -50 -128 -33 0 -70 40 -70 75 0 63 78 98 120
53z"/>
<path d="M1858 2907 c-125 -78 -228 -144 -228 -147 0 -3 15 -29 33 -57 l32
-50 230 144 c127 79 231 147 233 151 3 10 -56 102 -65 102 -5 -1 -110 -65
-235 -143z"/>
<path d="M7495 2951 c-45 -11 -87 -36 -117 -68 -40 -42 -189 -255 -186 -265 5
-14 442 -317 450 -312 4 3 46 60 92 127 119 173 137 243 90 343 -53 111 -223
202 -329 175z m118 -149 c26 -14 66 -45 87 -69 32 -34 40 -50 40 -80 0 -39
-35 -109 -82 -167 l-24 -28 -144 101 c-80 56 -146 105 -148 110 -6 17 94 136
128 154 42 21 75 16 143 -21z"/>
<path d="M2089 2802 c-53 -42 -148 -118 -212 -168 l-117 -91 37 -47 c21 -28
42 -45 50 -42 7 3 50 34 94 68 l81 63 24 -30 c39 -48 40 -70 5 -212 l-33 -132
44 -55 c23 -30 45 -55 48 -55 12 -2 65 217 64 262 0 46 0 47 20 32 65 -48 131
-57 184 -25 71 43 92 130 50 209 -30 55 -220 301 -233 300 -5 0 -53 -35 -106
-77z m180 -159 c45 -57 61 -86 61 -109 0 -44 -31 -69 -82 -65 -18 1 -148 148
-148 167 0 12 87 84 101 84 4 0 35 -35 68 -77z"/>
<path d="M2341 2272 l-171 -217 43 -37 c23 -21 44 -38 47 -38 3 0 61 72 129
160 68 88 126 158 128 157 2 -2 -32 -92 -76 -200 l-79 -196 43 -36 c24 -19 48
-35 53 -35 5 0 78 50 162 111 85 61 165 118 179 127 25 16 26 16 10 -3 -85
-103 -248 -319 -244 -325 2 -3 23 -19 45 -35 35 -24 43 -26 55 -14 22 23 325
413 325 419 0 3 -33 31 -73 62 l-74 57 -154 -109 c-85 -60 -157 -110 -160
-110 -4 0 25 81 63 181 39 99 68 181 67 183 -2 1 -36 27 -76 59 l-71 57 -171
-218z"/>
<path d="M6975 2420 l-48 -49 98 -269 c53 -148 101 -276 106 -283 6 -11 19 -3
54 32 l46 46 -25 63 c-14 35 -26 64 -26 65 0 0 42 40 94 88 l94 86 63 -25 62
-25 49 48 49 49 -253 99 c-139 54 -267 104 -284 111 -30 13 -32 12 -79 -36z
m210 -144 c42 -18 76 -36 76 -40 0 -4 -26 -32 -59 -62 l-60 -53 -36 94 c-20
52 -36 97 -36 101 0 8 27 -2 115 -40z"/>
<path d="M4130 2431 c0 -20 -54 -72 -101 -98 -47 -27 -49 -30 -49 -71 0 -40 2
-43 23 -37 12 4 41 19 64 35 23 16 44 26 47 23 3 -4 6 -89 6 -190 l0 -183 50
0 50 0 0 265 0 265 -45 0 c-25 0 -45 -4 -45 -9z"/>
<path d="M4475 2427 c-111 -51 -137 -204 -50 -292 52 -51 140 -60 188 -17 20
17 20 16 14 -30 -8 -56 -22 -83 -54 -97 -30 -14 -73 2 -80 29 -4 16 -13 20
-42 19 -20 0 -44 -3 -53 -7 -16 -7 -16 -10 2 -50 33 -73 131 -102 215 -63 95
43 120 98 120 261 0 132 -17 177 -81 226 -43 33 -130 43 -179 21z m98 -78 c52
-24 65 -122 22 -164 -13 -14 -33 -25 -45 -25 -11 0 -32 11 -45 25 -21 20 -25
34 -25 79 0 47 4 57 26 75 31 24 35 25 67 10z"/>
<path d="M4952 2432 c-40 -12 -94 -64 -113 -107 -37 -84 -34 -244 6 -330 9
-18 35 -46 57 -62 55 -37 144 -40 200 -5 75 47 103 180 51 250 -39 53 -83 74
-140 70 -33 -3 -61 -12 -74 -24 l-21 -19 7 45 c4 25 13 55 21 67 32 50 95 54
116 7 11 -24 15 -25 57 -19 26 4 48 9 51 12 9 8 -35 76 -62 96 -29 21 -115 32
-156 19z m83 -258 c38 -15 58 -101 34 -147 -16 -30 -28 -37 -67 -37 -45 0 -75
47 -69 110 7 63 49 94 102 74z"/>
<path d="M5304 2393 c-3 -21 -15 -80 -25 -131 -10 -52 -16 -98 -13 -103 8 -14
78 -10 100 6 27 20 87 19 114 -3 15 -12 23 -32 26 -62 6 -52 -10 -88 -47 -109
-34 -19 -83 -1 -98 37 -10 25 -15 27 -61 24 -57 -4 -62 -16 -30 -70 58 -95
207 -107 291 -23 64 64 74 156 24 232 -32 50 -84 72 -151 67 -58 -5 -59 -4
-48 51 l7 31 98 0 99 0 0 45 0 45 -140 0 -139 0 -7 -37z"/>
<path d="M6725 2209 c-16 -11 -36 -23 -43 -28 -11 -6 9 -43 80 -152 52 -79 97
-150 102 -157 8 -13 -7 -8 -257 94 l-157 64 -50 -32 c-27 -18 -48 -38 -46 -44
4 -10 283 -443 291 -452 6 -7 95 50 95 61 0 5 -41 73 -91 149 -50 77 -89 141
-87 144 3 2 94 -32 203 -76 l199 -80 54 36 53 35 -18 28 c-10 15 -76 118 -148
229 -71 111 -134 201 -140 201 -5 0 -23 -9 -40 -20z"/>
<path d="M2945 1820 c-126 -99 -231 -184 -233 -188 -2 -6 99 -62 112 -62 2 0
26 18 52 40 27 22 54 39 59 38 6 -2 56 -28 113 -58 l104 -54 -4 -71 -3 -70 61
-32 61 -32 12 212 c6 117 14 255 18 307 l6 95 -57 28 c-31 15 -60 27 -64 27
-4 0 -110 -81 -237 -180z m226 -70 c-5 -56 -12 -104 -14 -106 -2 -3 -37 13
-77 34 l-72 40 84 70 c46 38 84 68 86 67 2 -2 -1 -49 -7 -105z"/>
<path d="M6063 1846 c-28 -12 -54 -24 -56 -26 -2 -3 -7 -141 -11 -307 l-7
-302 53 21 c29 12 58 25 63 30 6 5 10 38 10 74 l0 65 95 40 c52 22 105 45 118
50 20 8 30 2 73 -38 l49 -46 60 24 c33 13 60 26 60 30 0 8 -440 409 -448 408
-4 0 -30 -11 -59 -23z m156 -220 l55 -55 -68 -31 c-37 -16 -74 -30 -82 -30
-11 0 -14 22 -14 106 l0 105 28 -20 c15 -10 51 -44 81 -75z"/>
<path d="M3416 1583 c-43 -142 -79 -262 -80 -267 0 -5 62 -28 139 -52 170 -52
247 -57 316 -21 58 31 104 93 129 173 25 83 25 147 -1 204 -40 88 -84 116
-274 174 -66 20 -127 39 -136 41 -12 4 -30 -45 -93 -252z m246 108 c85 -29
116 -49 134 -83 39 -75 -15 -245 -89 -281 -36 -18 -41 -18 -105 -2 -37 9 -79
22 -94 28 l-26 12 49 160 c60 195 56 185 67 185 5 0 34 -9 64 -19z"/>
<path d="M5710 1719 c-46 -11 -85 -21 -86 -22 -1 -1 -8 -74 -14 -162 -19 -256
-10 -252 -119 -54 -82 151 -96 170 -115 166 -11 -3 -48 -11 -82 -17 -34 -7
-66 -15 -72 -19 -7 -4 7 -91 45 -271 31 -146 58 -267 59 -268 3 -5 114 18 114
23 0 8 -81 390 -85 403 -13 37 13 -7 105 -180 56 -106 103 -194 105 -196 1 -1
29 3 61 10 l59 13 13 195 c8 107 17 203 21 214 4 11 22 -54 48 -179 23 -108
43 -198 45 -200 2 -2 27 2 56 7 39 8 52 15 52 28 0 10 -22 123 -50 252 -63
294 -59 278 -68 277 -4 0 -45 -10 -92 -20z"/>
<path d="M4065 1668 c-7 -20 -115 -532 -112 -533 5 -4 120 -25 122 -22 4 4
105 492 107 516 3 21 -3 25 -52 37 -30 7 -56 13 -58 14 -1 0 -5 -6 -7 -12z"/>
<path d="M4236 1617 c-7 -22 -39 -538 -34 -543 3 -2 81 -7 174 -11 194 -7 224
-1 287 56 51 46 75 100 83 188 12 128 -39 233 -133 275 -37 16 -87 23 -316 43
-41 3 -59 1 -61 -8z m275 -108 c87 -22 120 -90 101 -212 -19 -122 -54 -150
-184 -144 -48 2 -90 5 -92 8 -5 5 12 307 19 345 4 19 10 20 62 16 32 -2 74 -8
94 -13z"/>
<path d="M4814 1528 c3 -40 8 -166 12 -280 l6 -208 42 0 c91 0 88 -4 82 139
-3 69 -9 192 -12 274 l-6 147 -65 0 -65 0 6 -72z"/>
</g>
</svg>
