<svg width="44" height="43" viewBox="0 0 44 43" fill="none" xmlns="http://www.w3.org/2000/svg">
<path d="M22 0C9.856 0 0 9.632 0 21.5C0 33.368 9.856 43 22 43C34.144 43 44 33.368 44 21.5C44 9.632 34.144 0 22 0ZM11.154 35.002C12.1 33.067 17.864 31.175 22 31.175C26.136 31.175 31.922 33.067 32.846 35.002C29.854 37.324 26.092 38.7 22 38.7C17.908 38.7 14.146 37.324 11.154 35.002ZM35.992 31.8845C32.846 28.1435 25.212 26.875 22 26.875C18.788 26.875 11.154 28.1435 8.008 31.8845C5.764 29.0035 4.4 25.413 4.4 21.5C4.4 12.0185 12.298 4.3 22 4.3C31.702 4.3 39.6 12.0185 39.6 21.5C39.6 25.413 38.236 29.0035 35.992 31.8845ZM22 8.6C17.732 8.6 14.3 11.954 14.3 16.125C14.3 20.296 17.732 23.65 22 23.65C26.268 23.65 29.7 20.296 29.7 16.125C29.7 11.954 26.268 8.6 22 8.6ZM22 19.35C20.174 19.35 18.7 17.9095 18.7 16.125C18.7 14.3405 20.174 12.9 22 12.9C23.826 12.9 25.3 14.3405 25.3 16.125C25.3 17.9095 23.826 19.35 22 19.35Z" fill="white"/>
</svg>
